<svg width="16" height="16" viewBox="0 0 16 16" fill="none" xmlns="http://www.w3.org/2000/svg">
<path d="M7.99104 0.50293C3.85104 0.50293 0.498535 3.86293 0.498535 8.00293C0.498535 12.1429 3.85104 15.5029 7.99104 15.5029C12.1385 15.5029 15.4985 12.1429 15.4985 8.00293C15.4985 3.86293 12.1385 0.50293 7.99104 0.50293ZM7.99854 14.0029C4.68354 14.0029 1.99854 11.3179 1.99854 8.00293C1.99854 4.68793 4.68354 2.00293 7.99854 2.00293C11.3135 2.00293 13.9985 4.68793 13.9985 8.00293C13.9985 11.3179 11.3135 14.0029 7.99854 14.0029ZM7.83354 4.25293H7.78854C7.48854 4.25293 7.24854 4.49293 7.24854 4.79293V8.33293C7.24854 8.59543 7.38354 8.84293 7.61604 8.97793L10.7285 10.8454C10.9835 10.9954 11.3135 10.9204 11.4635 10.6654C11.621 10.4104 11.5385 10.0729 11.276 9.92293L8.37354 8.19793V4.79293C8.37354 4.49293 8.13354 4.25293 7.83354 4.25293Z" fill="#9E9E9E"/>
</svg>
